<svg xmlns="http://www.w3.org/2000/svg" viewBox="0 0 160 160" role="img" aria-labelledby="title desc">
  <title id="title">LinkPilot logo</title>
  <desc id="desc">Marca para el acortador de enlaces.</desc>
  <rect width="160" height="160" rx="32" fill="#0f766e"/>
  <path d="M52 86c-12 0-22-10-22-22s10-22 22-22h22v14H52a8 8 0 0 0 0 16h22v14H52Z" fill="#f8fafc"/>
  <path d="M86 86H60V72h26a8 8 0 0 0 0-16H64V42h22c12 0 22 10 22 22S98 86 86 86Z" fill="#f8fafc" opacity=".92"/>
  <path d="M69 112h42a9 9 0 0 0 0-18H94V80h17c13 0 23 10 23 23s-10 23-23 23H69v-14Z" fill="#f59e0b"/>
  <path d="M50 104h44v14H50z" fill="#f8fafc"/>
</svg>
